<?xml version="1.0" standalone="no"?>
<!DOCTYPE svg PUBLIC "-//W3C//DTD SVG 20010904//EN"
 "http://www.w3.org/TR/2001/REC-SVG-20010904/DTD/svg10.dtd">
<svg version="1.0" xmlns="http://www.w3.org/2000/svg"
 width="512.000000pt" height="512.000000pt" viewBox="0 0 512.000000 512.000000"
 preserveAspectRatio="xMidYMid meet">

<g transform="translate(0.000000,512.000000) scale(0.100000,-0.100000)"
fill="#000000" stroke="none">
<path d="M2799 4947 c-86 -24 -143 -70 -360 -286 -333 -333 -538 -591 -718
-903 -279 -485 -347 -925 -206 -1345 120 -360 377 -651 720 -819 540 -263
1160 -179 1617 219 118 102 243 268 322 425 151 300 182 671 85 1007 -105 361
-320 727 -658 1120 -207 241 -502 523 -587 562 -63 29 -154 37 -215 20z m143
-257 c38 -46 25 -73 -79 -174 -54 -51 -112 -105 -128 -119 -17 -14 -88 -88
-159 -166 -459 -502 -698 -936 -732 -1329 -8 -102 -27 -132 -83 -132 -27 0
-44 7 -61 25 -22 23 -23 29 -17 127 19 309 186 682 481 1073 151 201 353 424
541 598 138 128 139 129 179 124 25 -4 48 -14 58 -27z m-151 -1362 c24 -14 55
-38 68 -52 l24 -25 19 24 c10 13 48 38 83 56 57 28 71 31 132 27 80 -5 133
-28 186 -81 165 -165 79 -488 -197 -743 -107 -99 -151 -127 -212 -132 -43 -4
-61 0 -105 24 -65 36 -205 167 -271 254 -205 270 -194 559 26 661 61 29 186
22 247 -13z"/>
<path d="M1225 580 l-420 -420 796 0 796 0 21 23 c14 15 22 36 22 58 0 32 -26
60 -363 397 -338 338 -364 362 -397 362 -33 0 -62 -27 -455 -420z"/>
</g>
</svg>
